<?xml version="1.0" encoding="UTF-8"?><svg id="Layer_2" xmlns="http://www.w3.org/2000/svg" viewBox="0 0 382.78 383.14"><defs><style>.cls-1{fill:#256bb7;}</style></defs><g id="Layer_1-2"><g><path class="cls-1" d="M0,84.57c1.33-.89,.97-2.44,1.31-3.66,3.16-11.02,12.28-18.78,23.7-19.7,4.34-.35,8.72-.24,13.08-.25,22.32-.02,44.65-.01,66.97,0,1.37,0,2.76-.02,4.09,.24,2.98,.58,4.59,2.55,4.51,5.53-.07,2.97-1.76,4.86-4.76,5.32-1.22,.19-2.49,.14-3.73,.14H30.34c-12.87,0-18.76,5.88-18.76,18.72,0,63.98,.02,127.95-.08,191.93,0,3.05,.62,3.96,3.8,3.88,9.72-.24,19.45-.08,29.18-.09,3.21,0,5.66,1.15,6.4,4.49,.86,3.88-1.78,6.73-6.28,6.75-9.98,.06-19.95,.09-29.93-.03-2.38-.03-3.04,.54-3.19,3.05-.72,12.15,7.38,18.98,18.67,18.96,107.62-.23,215.25-.22,322.87,0,10.78,.02,19.44-6.3,18.54-19.43-.13-1.87-.48-2.81-2.51-2.54-.86,.11-1.74,.02-2.62,.02H73.11c-1.37,0-2.75,.08-4.11-.06-3.21-.32-5.04-2.31-5.15-5.39-.1-3.12,1.75-5.13,4.85-5.69,1.33-.24,2.73-.11,4.11-.11,98.15,0,196.29-.03,294.44,.09,3.72,0,4.34-1.02,4.34-4.49-.11-63.73-.08-127.45-.08-191.18,0-2.62,.05-5.25-.75-7.78-2.17-6.86-7.98-10.96-15.99-11.07-7.86-.11-15.71-.02-23.57-.03-1,0-2,.04-2.99-.02-3.83-.2-6.12-2.36-6.06-5.67,.06-3.15,2.25-5.47,5.87-5.48,10.22-.05,20.47-.32,30.66,.32,12.54,.78,22.62,11.28,23.83,23.84,.17,1.73,.26,3.48,.26,5.23,.01,70.46,.02,140.92,0,211.38,0,14.86-7.96,25.46-21.31,28.6-2.7,.64-5.45,.56-8.19,.56-28.68,.01-57.37,.06-86.05-.07-3.12-.01-4.03,.77-3.87,3.88,.3,6.09-1.17,12.64,.65,18.16,1.77,5.39,6.94,9.6,10.22,14.59,2.21,3.35,4.68,5.07,8.8,4.46,3.12-.46,6.03,.17,7.37,3.62,1.34,3.47-.83,5.52-3.06,7.55H97.28c-2.27-2.03-4.26-4.23-2.98-7.59,1.31-3.43,4.26-4.04,7.38-3.59,3.61,.53,5.64-1.1,7.56-3.92,3.42-5.04,8.31-9.38,10.53-14.85,2.22-5.49,.27-12.03,.74-18.09,.27-3.48-.9-4.25-4.26-4.23-29.27,.14-58.53,.12-87.8,.06-14.07-.02-24.12-7.95-27.59-21.53-.17-.66,.14-1.56-.85-1.84v-1.5c1.44-.87,.7-2.26,.7-3.38,.04-71.08,.04-142.15,0-213.23,0-1.12,.72-2.51-.7-3.39v-1.5h-.01ZM120.48,371.69h142.92c-2.67-3.59-4.94-7-7.58-10.1-2.74-3.22-3.95-6.65-3.69-10.92,.31-5.21-.12-10.47,.15-15.69,.17-3.18-.57-4.15-3.99-4.13-26.91,.17-53.82,.09-80.73,.09-10.84,0-21.68,.12-32.52-.08-2.91-.05-3.56,.82-3.43,3.55,.23,4.6-.22,9.24,.13,13.82,.45,5.79-.83,10.71-4.91,15.01-2.29,2.42-4.05,5.34-6.35,8.44h0Z"/><path class="cls-1" d="M0,86.06c1.42,.87,.7,2.27,.7,3.39,.04,71.08,.04,142.15,0,213.23,0,1.12,.73,2.51-.7,3.38V86.06Z"/><path class="cls-1" d="M191.66,.01c36.66,.03,66.53,29.98,66.5,66.67-.03,36.65-30,66.54-66.68,66.5-36.65-.03-66.53-30-66.5-66.69C125.01,29.82,154.96-.03,191.66,0h0Zm55.26,66.44c-.06-30.49-25.04-55.29-55.6-55.19-30.33,.1-55.08,24.94-55.1,55.31-.02,30.51,24.9,55.42,55.41,55.4,30.5-.02,55.35-24.97,55.29-55.52Z"/><path class="cls-1" d="M166.75,156.58h76.68c1.49,0,2.99-.14,4.43,.45,2.65,1.09,3.88,3.09,3.56,5.89-.31,2.63-1.88,4.32-4.52,4.74-1.46,.23-2.98,.15-4.48,.15H90.93c-5.91,0-6.39,.49-6.4,6.35v28.05c0,4.86,.78,5.66,5.6,5.66,29.18,0,58.35,0,87.53,.01,1.37,0,2.81-.13,4.09,.24,2.33,.68,3.79,2.33,3.94,4.87,.16,2.66-.98,4.53-3.45,5.61-1.44,.63-2.93,.5-4.42,.5H89.92c-10.81,0-16.61-5.79-16.62-16.58,0-10.1-.03-20.2,0-30.3,.03-9.57,6.06-15.64,15.65-15.65,25.93-.04,51.87-.01,77.8-.01v.02Z"/><path class="cls-1" d="M196.11,228.95c.46-7.33,.89-14.67,1.38-22,.43-6.35,5.58-10.35,11.68-8.5,14.26,4.32,28.43,8.93,42.6,13.54,3.47,1.13,5.55,3.75,6.05,7.39,.5,3.66-.99,6.54-3.9,8.73-.2,.15-.42,.26-.62,.41-2.42,1.74-6.44,3.17-6.86,5.31-.54,2.75,3.02,5.3,4.72,7.99,1.39,2.21,3,4.28,4.41,6.48,3.18,4.95,2.41,9.6-2.32,13.05-4.22,3.08-8.53,6.03-12.91,8.88-4.66,3.04-9.5,2.12-12.77-2.38-2.7-3.72-5.47-7.44-7.76-11.41-1.81-3.14-3.45-3.02-5.87-.92-1.4,1.22-3.03,2.17-4.58,3.2-3.16,2.11-6.49,2.49-9.85,.59-3.51-1.98-4.86-5.16-4.62-9.1,.43-7.08,.85-14.17,1.28-21.25h-.06Zm10.25,18.18c3.48-2.39,6.19-4.36,9-6.16,3.35-2.14,6.05-1.65,8.4,1.58,2.42,3.31,4.68,6.74,7,10.12,5.11,7.44,5.07,7.39,12.54,1.95,1.56-1.13,1.81-1.88,.67-3.47-3.19-4.44-6.23-8.99-9.32-13.51-3.87-5.65-3.46-7.57,2.25-11.56,2.18-1.52,4.66-2.67,6.61-5-11.07-3.51-21.83-6.88-32.54-10.37-1.66-.54-2.5-.67-2.61,1.45-.61,11.41-1.3,22.81-2,34.95v.02Z"/><path class="cls-1" d="M309.85,188.11c0,5.36,.05,10.73-.01,16.09-.1,8.31-5.91,14.57-14.15,14.87-7.1,.26-14.22,.13-21.32,.03-3.71-.05-6.19-2.44-6.2-5.63,0-3.23,2.41-5.5,6.19-5.55,6.36-.08,12.72,0,19.08-.03,4.17-.02,5.17-.96,5.18-4.95,.03-10.1-.07-20.2,.05-30.3,.04-3.61-1.61-4.87-5-4.83-7.48,.08-14.97,.05-22.45,.01-4.37-.02-6.95-2.14-6.98-5.54-.02-3.44,2.59-5.65,6.9-5.68,7.86-.05,15.71-.09,23.57,0,9.06,.11,15.08,6.28,15.15,15.42,.04,5.36,0,10.73,0,16.09h0Z"/><path class="cls-1" d="M289.47,72.19c-4.61,0-9.23,.08-13.84-.02-3.87-.08-6.19-2.23-6.23-5.5s2.26-5.64,6.07-5.69c9.35-.11,18.7-.12,28.05,.02,3.64,.05,5.79,2.33,5.83,5.51,.05,3.34-2.2,5.55-6.05,5.65-4.61,.11-9.22,.03-13.84,.03h.01Z"/><path class="cls-1" d="M169.54,70.96c1.23-.1,2.57,.8,3.79,1.9,2.59,2.34,5.31,4.56,7.7,7.09,2.1,2.22,3.4,2.47,5.82,.05,10.13-10.14,20.54-20,30.85-29.96,.99-.95,1.92-2,3.04-2.76,2.44-1.66,4.99-1.64,7.16,.45,2.29,2.21,2.43,4.82,.55,7.4-.65,.9-1.51,1.65-2.32,2.43-12.19,11.78-24.38,23.55-36.58,35.32-4.26,4.11-6.39,4.13-10.82,.09-4.42-4.03-8.85-8.05-13.25-12.1-1.9-1.75-2.71-3.85-1.67-6.39,.95-2.32,2.71-3.48,5.74-3.53h-.01Z"/></g></g></svg>